<?xml version="1.0" standalone="no"?>
<!DOCTYPE svg PUBLIC "-//W3C//DTD SVG 20010904//EN"
 "http://www.w3.org/TR/2001/REC-SVG-20010904/DTD/svg10.dtd">
<svg version="1.0" xmlns="http://www.w3.org/2000/svg"
 width="1024.000000pt" height="1024.000000pt" viewBox="0 0 1024.000000 1024.000000"
 preserveAspectRatio="xMidYMid meet">

<g transform="translate(0.000000,1024.000000) scale(0.100000,-0.100000)"
fill="#000000" stroke="none">
<path d="M0 5120 l0 -5120 5120 0 5120 0 0 5120 0 5120 -5120 0 -5120 0 0
-5120z m3306 2606 c427 -76 835 -335 1076 -681 145 -209 256 -494 288 -735 12
-96 13 -2840 0 -2968 -8 -84 -39 -232 -60 -287 -52 -138 -77 -197 -99 -235
-31 -54 -120 -190 -135 -206 -6 -6 -33 -37 -61 -69 -103 -117 -322 -283 -457
-344 -220 -100 -340 -127 -593 -136 -219 -7 -287 2 -466 60 -157 51 -372 165
-452 239 -15 14 -31 26 -35 26 -11 0 -140 127 -195 192 -74 86 -134 182 -189
298 -27 58 -53 113 -58 122 -6 10 -10 40 -10 67 0 45 7 61 78 169 42 65 129
202 192 305 63 103 118 187 122 187 3 0 9 -19 13 -42 20 -123 74 -248 155
-358 97 -130 257 -235 430 -281 46 -12 217 -16 280 -7 247 38 482 212 583 430
64 139 61 48 64 1531 3 1211 2 1354 -13 1410 -47 185 -154 307 -335 385 l-64
27 -415 5 -415 5 -55 27 c-31 15 -70 41 -88 59 -26 26 -199 288 -346 524 -17
28 -65 104 -108 169 -43 66 -78 123 -78 129 0 5 257 7 678 4 565 -4 692 -7
768 -21z m5034 18 c0 -3 -40 -67 -88 -142 -49 -75 -108 -168 -131 -207 -24
-38 -65 -104 -92 -145 -27 -41 -71 -112 -99 -157 -76 -123 -164 -194 -299
-241 -40 -14 -131 -17 -666 -22 l-620 -5 -55 -24 c-177 -79 -310 -223 -350
-382 -16 -61 -24 -2692 -8 -2764 36 -166 97 -283 206 -393 86 -88 181 -149
292 -188 65 -24 95 -28 226 -32 149 -4 153 -4 253 28 284 91 474 299 528 580
29 148 -1 360 -68 492 -101 199 -276 333 -514 394 -167 43 -338 23 -497 -57
-32 -16 -58 -24 -58 -18 0 6 44 79 98 162 54 84 123 193 152 242 76 127 117
181 196 255 83 78 169 126 261 145 78 17 165 19 191 6 9 -5 56 -18 104 -29
268 -62 591 -314 783 -612 89 -138 166 -308 203 -450 53 -200 55 -215 59 -396
4 -134 1 -208 -11 -290 -79 -536 -420 -1014 -891 -1249 -184 -92 -325 -135
-570 -176 -91 -15 -329 -7 -465 15 -429 70 -851 344 -1097 711 -52 77 -153
279 -186 371 -36 100 -64 224 -83 364 -6 44 -6 2779 0 2789 4 5 13 47 22 93
89 484 430 931 879 1156 223 111 380 154 640 175 72 6 1755 7 1755 1z m1369
-7010 c27 -63 90 -123 156 -151 25 -10 45 -20 45 -23 0 -3 -25 -16 -56 -29
-63 -27 -123 -90 -151 -156 -10 -25 -20 -45 -23 -45 -3 0 -16 25 -29 56 -27
63 -90 123 -156 151 -25 10 -45 20 -45 23 0 3 25 16 56 29 63 27 123 90 151
156 10 25 20 45 23 45 3 0 16 -25 29 -56z"/>
</g>
</svg>
